<svg width="22" height="33" viewBox="0 0 22 33" fill="none" xmlns="http://www.w3.org/2000/svg">
<path d="M21.5 9.74736C21.5 10.711 21.1844 12.1128 20.6052 13.8123C20.0303 15.4994 19.2107 17.4375 18.2365 19.4571C16.2875 23.4979 13.7357 27.8323 11.3283 31.0936C11.1477 31.3384 10.8003 31.3436 10.6142 31.1124C8.13732 28.0361 5.60073 23.7958 3.68365 19.7525C2.72586 17.7324 1.92688 15.7702 1.36836 14.0356C0.806812 12.2917 0.5 10.813 0.5 9.74736C0.5 7.23489 1.79867 4.92794 3.78499 3.23552C5.77212 1.54241 8.40912 0.5 11 0.5C13.5909 0.5 16.2279 1.54241 18.215 3.23552C20.2013 4.92794 21.5 7.23489 21.5 9.74736Z" fill="white" stroke="black"/>
<circle cx="11" cy="11" r="2.73529" fill="#FDFDFD" stroke="black"/>
</svg>
