<svg width="33" height="33" viewBox="0 0 33 33" fill="none" xmlns="http://www.w3.org/2000/svg">
<path fill-rule="evenodd" clip-rule="evenodd" d="M13.2 2C13.2 0.895431 14.0954 0 15.2 0H17.3286C18.4331 0 19.3286 0.895429 19.3286 2V4.90081C19.3286 5.65589 19.8292 6.3137 20.5164 6.62656C21.2488 6.96001 22.1236 6.8681 22.6926 6.29904L24.7489 4.2428C25.5299 3.46175 26.7963 3.46175 27.5773 4.2428L29.0824 5.74793C29.8635 6.52898 29.8635 7.7953 29.0824 8.57635L26.3305 11.3283C26.025 11.6338 25.9487 12.0949 26.1083 12.4964C26.2723 12.9089 26.6614 13.2 27.1053 13.2H31C32.1046 13.2 33 14.0954 33 15.2V17.3286C33 18.4331 32.1046 19.3286 31 19.3286H27.7884C27.0275 19.3286 26.3718 19.8514 26.0869 20.557C25.8073 21.2496 25.9142 22.052 26.4423 22.5802L28.611 24.7489C29.3921 25.5299 29.3921 26.7963 28.611 27.5773L27.1059 29.0824C26.3248 29.8635 25.0585 29.8635 24.2775 29.0824L21.9544 26.7594C21.5177 26.3227 20.8526 26.233 20.2847 26.4756C19.7279 26.7135 19.3286 27.2426 19.3286 27.8481V31C19.3286 32.1046 18.4331 33 17.3286 33H15.2C14.0954 33 13.2 32.1046 13.2 31V27.9885C13.2 27.3877 12.7894 26.8683 12.2268 26.6576C11.6996 26.4602 11.1005 26.5583 10.7024 26.9564L8.57634 29.0825C7.79529 29.8635 6.52896 29.8635 5.74791 29.0824L4.24279 27.5773C3.46174 26.7963 3.46174 25.5299 4.24279 24.7489L5.67941 23.3123C6.33532 22.6564 6.43541 21.6429 6.06799 20.7912C5.70985 19.961 4.93014 19.3286 4.026 19.3286H2C0.895431 19.3286 0 18.4331 0 17.3286V15.2C0 14.0954 0.895432 13.2 2 13.2H4.6805C5.286 13.2 5.81506 12.8007 6.05294 12.2438C6.29554 11.676 6.20585 11.0108 5.7692 10.5742L3.77136 8.57633C2.99031 7.79528 2.99031 6.52895 3.77136 5.7479L5.27648 4.24278C6.05753 3.46173 7.32386 3.46173 8.10491 4.24278L9.94835 6.08622C10.4765 6.6144 11.279 6.72126 11.9716 6.44162C12.6772 6.15676 13.2 5.50108 13.2 4.74018V2Z" fill="#B9B9B9"/>
<circle cx="16.2643" cy="16.2642" r="6.83571" fill="#FEFEFE"/>
<circle cx="16.2643" cy="16.2642" r="6.83571" stroke="#B9B9B9"/>
</svg>
